<svg xmlns="http://www.w3.org/2000/svg" width="50" height="31.25" viewBox="0 0 50 31.25"><path d="M42.677,19.816a14.644,14.644,0,0,0-26.606-6.748,6.92,6.92,0,0,0-2.626-.518,7.232,7.232,0,0,0-6.971,7.168A9.539,9.539,0,0,0,0,28.771,9.183,9.183,0,0,0,8.875,38h32.25a9.19,9.19,0,0,0,1.552-18.184Zm-9.943.893-10.4,10.533h-.01a1.763,1.763,0,0,1-1.133.537,1.709,1.709,0,0,1-1.142-.557l-5.468-5.469a.389.389,0,0,1,0-.557l1.738-1.738a.377.377,0,0,1,.547,0l4.335,4.336,9.253-9.42a.386.386,0,0,1,.273-.117h0a.355.355,0,0,1,.273.117l1.709,1.768A.385.385,0,0,1,32.734,20.709Z" transform="translate(0 -6.75)" fill="#fff"/></svg>