<svg xmlns="http://www.w3.org/2000/svg" width="49.998" height="31.266" viewBox="0 0 49.998 31.266"><g transform="translate(-8 -2.25)"><path d="M42.684,15.323a14.645,14.645,0,0,0-26.61-6.751,6.919,6.919,0,0,0-2.627-.518,7.234,7.234,0,0,0-6.972,7.172A9.544,9.544,0,0,0,0,24.283a9.187,9.187,0,0,0,8.877,9.233H23.73V19.651l-4.678,4.612a1.271,1.271,0,0,1-1.787-1.808L24.1,15.714h0a1.242,1.242,0,0,1,.4-.264,1.211,1.211,0,0,1,.488-.1,1.272,1.272,0,0,1,.889.362l6.836,6.742a1.271,1.271,0,0,1-1.787,1.808l-4.658-4.612V33.516H41.121a9.2,9.2,0,0,0,1.562-18.193Z" transform="translate(8 0)" fill="#fff"/><path d="M17.086,24.75Z" transform="translate(3.533 8.766)" fill="#fff"/></g></svg>